<?xml version="1.0" encoding="utf-8"?><svg xmlns="http://www.w3.org/2000/svg" xmlns:xlink="http://www.w3.org/1999/xlink"><symbol fill="none" viewBox="0 0 319 89" id="Flowtly--flowtly" xmlns="http://www.w3.org/2000/svg"><path d="M44.945 71.115V0h13.541v71.115h-13.54ZM66.361 45.57c0-5.123 1.2-9.764 3.602-13.926 2.433-4.161 5.762-7.41 9.987-9.748 4.226-2.337 8.916-3.505 14.07-3.505 5.186 0 9.892 1.185 14.117 3.553 4.226 2.337 7.539 5.587 9.94 9.748 2.433 4.13 3.649 8.755 3.649 13.877 0 7.78-2.609 14.198-7.827 19.256-5.186 5.058-11.812 7.587-19.88 7.587-8.002 0-14.613-2.53-19.83-7.587-5.219-5.058-7.828-11.477-7.828-19.256Zm13.59 0c0 4.353 1.328 7.922 3.985 10.707 2.657 2.754 6.018 4.13 10.084 4.13 4.097 0 7.475-1.376 10.132-4.13 2.689-2.785 4.033-6.354 4.033-10.708 0-4.385-1.344-8.003-4.033-10.852-2.689-2.88-6.067-4.321-10.132-4.321-4.098 0-7.475 1.424-10.132 4.273-2.625 2.85-3.938 6.483-3.938 10.9Zm44.945-25.882h14.789l9.028 36.493 9.843-36.493h12.773l9.748 36.493 9.123-36.493h14.742l-15.414 51.427h-15.174l-9.411-32.94-9.556 32.94h-15.126l-15.365-51.427Zm84.848 10.996V19.687h5.474V8.883h13.397v10.805h9.604v10.996h-9.604v19.88c0 3.68.56 6.146 1.681 7.394 1.152 1.217 3.105 1.825 5.858 1.825a29.1 29.1 0 0 0 2.497-.096v11.62c-1.377.32-3.313.48-5.81.48-6.083 0-10.564-1.712-13.445-5.138-2.85-3.425-4.274-8.659-4.274-15.702V30.684h-5.378Zm36.974 40.431V0h13.541v71.115h-13.541Zm57.238-51.427-11.621 33.516-6.29 16.615-7.203 18.919h13.013l26.266-69.05h-14.165Z" fill="#000"/><path d="M280.811 19.688h-14.55l19.784 50.13 6.29-16.614-11.524-33.517Z" fill="#715DFA"/><path d="M0 71.115h13.877V14.742H0v56.373Z" fill="#000"/><path d="m29.044 43.36 3.512-12.388H13.877V43.36h15.167Zm6.153-41.103H0v12.485h31.685l3.512-12.485Z" fill="#715DFA"/></symbol></svg>