<svg width="319" height="89" viewBox="0 0 319 89" fill="none" xmlns="http://www.w3.org/2000/svg">
<path d="M44.9451 71.1151V0H58.4862V71.1151H44.9451Z" fill="black"/>
<path d="M66.3612 45.5694C66.3612 40.4474 67.5617 35.8056 69.9626 31.6441C72.3955 27.4825 75.7248 24.2332 79.9504 21.8963C84.176 19.5595 88.8658 18.391 94.0198 18.391C99.2057 18.391 103.912 19.5755 108.137 21.9444C112.363 24.2813 115.676 27.5305 118.077 31.6921C120.51 35.8216 121.726 40.4474 121.726 45.5694C121.726 53.3483 119.117 59.7668 113.899 64.8247C108.713 69.8826 102.087 72.4116 94.0198 72.4116C86.0167 72.4116 79.4062 69.8826 74.1882 64.8247C68.9702 59.7668 66.3612 53.3483 66.3612 45.5694ZM79.9504 45.5694C79.9504 49.923 81.2789 53.4924 83.9359 56.2774C86.5929 59.0305 89.9542 60.407 94.0198 60.407C98.1173 60.407 101.495 59.0305 104.152 56.2774C106.841 53.4924 108.185 49.923 108.185 45.5694C108.185 41.1837 106.841 37.5663 104.152 34.7172C101.463 31.8361 98.0853 30.3956 94.0198 30.3956C89.9222 30.3956 86.5449 31.8201 83.8879 34.6692C81.2629 37.5183 79.9504 41.1517 79.9504 45.5694Z" fill="black"/>
<path d="M124.896 19.6875H139.685L148.713 56.1814L158.556 19.6875H171.329L181.077 56.1814L190.2 19.6875H204.942L189.528 71.1151H174.354L164.943 38.1745L155.387 71.1151H140.261L124.896 19.6875Z" fill="black"/>
<path d="M209.744 30.6837V19.6875H215.218V8.88338H228.615V19.6875H238.219V30.6837H228.615V50.5633C228.615 54.2447 229.175 56.7096 230.296 57.9581C231.448 59.1745 233.401 59.7828 236.154 59.7828C237.082 59.7828 237.915 59.7508 238.651 59.6867V71.3072C237.274 71.6273 235.338 71.7874 232.841 71.7874C226.758 71.7874 222.277 70.0747 219.396 66.6494C216.546 63.2241 215.122 57.9901 215.122 50.9474V30.6837H209.744Z" fill="black"/>
<path d="M246.718 71.1151V0H260.259V71.1151H246.718Z" fill="black"/>
<path d="M303.956 19.6875L292.335 53.2043L286.045 69.8186L278.842 88.7378H291.855L318.121 19.6875H303.956Z" fill="black"/>
<path d="M280.811 19.6875H266.261L286.045 69.8186L292.335 53.2043L280.811 19.6875Z" fill="#715DFA"/>
<path d="M0 71.1151H13.8773V14.7416H0V71.1151Z" fill="black"/>
<path d="M29.0441 43.3606L32.5563 30.9718H13.8772V43.3606H29.0441Z" fill="#715DFA"/>
<path d="M35.1974 2.25687H0V14.7416H31.6852L35.1974 2.25687Z" fill="#715DFA"/>
</svg>
